<svg width="28" height="24" viewBox="0 0 28 24" fill="none" xmlns="http://www.w3.org/2000/svg">
<rect width="28" height="24" rx="4" fill="url(#paint0_linear_9391_20388)"/>
<path d="M4.5 7V17M7.5 5V19" stroke="white" stroke-width="1.3" stroke-linecap="round" stroke-linejoin="round"/>
<path d="M21.3333 3H12.6667C11.47 3 10.5 3.89543 10.5 5V19C10.5 20.1046 11.47 21 12.6667 21H21.3333C22.53 21 23.5 20.1046 23.5 19V5C23.5 3.89543 22.53 3 21.3333 3Z" stroke="white" stroke-width="1.3" stroke-linecap="round" stroke-linejoin="round"/>
<path fill-rule="evenodd" clip-rule="evenodd" d="M14 10.0411C14 9.76495 14.1097 9.50015 14.3049 9.30492C14.5002 9.10968 14.765 9 15.0411 9H17.1829C17.4588 9.00015 17.7234 9.10987 17.9185 9.30503L20.6947 12.0812C20.8899 12.2764 20.9995 12.5412 20.9995 12.8172C20.9995 13.0933 20.8899 13.358 20.6947 13.5532L18.5536 15.695C18.4569 15.7917 18.3421 15.8684 18.2158 15.9208C18.0895 15.9731 17.9541 16 17.8174 16C17.6807 16 17.5453 15.9731 17.4189 15.9208C17.2926 15.8684 17.1779 15.7917 17.0812 15.695L14.305 12.9189C14.1098 12.7237 14.0001 12.4589 14 12.1829V10.0411ZM15.7348 9.86016C15.5029 9.86016 15.2805 9.95234 15.1165 10.1164C14.9525 10.2805 14.8603 10.503 14.8603 10.7351C14.8603 10.9671 14.9525 11.1897 15.1165 11.3538C15.2805 11.5179 15.5029 11.61 15.7348 11.61C15.9668 11.61 16.1901 11.5179 16.3541 11.3538C16.5181 11.1897 16.6102 10.9671 16.6102 10.7351C16.6102 10.503 16.5181 10.2805 16.3541 10.1164C16.1901 9.95234 15.9668 9.86016 15.7348 9.86016Z" fill="white"/>
<defs>
<linearGradient id="paint0_linear_9391_20388" x1="-2" y1="31.0435" x2="37.5761" y2="26.0701" gradientUnits="userSpaceOnUse">
<stop stop-color="#AB3A6C"/>
<stop offset="1" stop-color="#E6533A"/>
</linearGradient>
</defs>
</svg>
