<svg width="24" height="24" viewBox="0 0 28 24" style="color: transparent;" fill="none" xmlns="http://www.w3.org/2000/svg">
<rect width="28" height="24" rx="4" fill="url(#paint0_linear_7817_124660)"/>
<path d="M21 12.9V10.7913C21 10.0551 21 9.6879 20.8765 9.3567C20.753 9.0264 20.5182 8.7654 20.0477 8.2452L16.1998 3.9828C15.7943 3.5337 15.592 3.3096 15.3401 3.1764C15.288 3.14866 15.2346 3.12403 15.1801 3.1026C14.9176 3 14.6308 3 14.058 3C11.4214 3 10.1027 3 9.20981 3.7974C9.02951 3.95844 8.86526 4.14038 8.71988 4.3401C8 5.331 8 6.7899 8 9.7104V12.9M15.3125 3.45V3.9C15.3125 6.4452 15.3125 7.7187 16.0267 8.5089C16.7401 9.3 17.8897 9.3 20.1875 9.3H20.5938M20.7969 15.6H18.7656C18.5501 15.6 18.3435 15.6948 18.1911 15.8636C18.0387 16.0324 17.9531 16.2613 17.9531 16.5V18.3M17.9531 18.3V21M17.9531 18.3H20.3906M8.20312 21V18.75M8.20312 18.75V15.6H9.625C10.0021 15.6 10.3638 15.7659 10.6304 16.0613C10.8971 16.3567 11.0469 16.7573 11.0469 17.175C11.0469 17.5927 10.8971 17.9933 10.6304 18.2887C10.3638 18.5841 10.0021 18.75 9.625 18.75H8.20312ZM13.0781 15.6H14.2969C14.7279 15.6 15.1412 15.7896 15.4459 16.1272C15.7507 16.4648 15.9219 16.9226 15.9219 17.4V19.2C15.9219 19.6774 15.7507 20.1352 15.4459 20.4728C15.1412 20.8104 14.7279 21 14.2969 21H13.0781V15.6Z" stroke="white" stroke-linecap="round" stroke-linejoin="round"/>
<defs>
<linearGradient id="paint0_linear_7817_124660" x1="-2" y1="31.0435" x2="37.5761" y2="26.0701" gradientUnits="userSpaceOnUse">
<stop stop-color="#AB3A6C"/>
<stop offset="1" stop-color="#E6533A"/>
</linearGradient>
</defs>
</svg>
