<svg width="24" height="24" viewBox="0 0 28 24" style="color: transparent;" fill="none" xmlns="http://www.w3.org/2000/svg">
<rect width="28" height="24" rx="4" fill="url(#paint0_linear_5148_23476)"/>
<path d="M11.0078 8.53418C11.0924 8.53037 11.1771 8.54807 11.2529 8.58594L17.1924 11.5557C17.2748 11.597 17.3441 11.6608 17.3926 11.7393C17.4409 11.8177 17.4668 11.9079 17.4668 12C17.4668 12.0921 17.4409 12.1823 17.3926 12.2607C17.3563 12.3195 17.3083 12.3703 17.252 12.4092L17.1924 12.4443L11.2529 15.4141C11.1771 15.4519 11.0924 15.4696 11.0078 15.4658C10.9234 15.462 10.8414 15.4369 10.7695 15.3926C10.6975 15.3481 10.638 15.2858 10.5967 15.2119C10.5554 15.1379 10.5332 15.0544 10.5332 14.9697V9.03027C10.5332 8.94555 10.5554 8.86207 10.5967 8.78809C10.638 8.71423 10.6975 8.6519 10.7695 8.60742C10.8414 8.56307 10.9234 8.53804 11.0078 8.53418Z" fill="white" stroke="white" stroke-width="1.06667" stroke-linecap="round" stroke-linejoin="round"/>
<path d="M6.17383 2.5332H21.8262C23.8324 2.53325 25.4668 4.17571 25.4668 6.21094V17.7891C25.4668 19.8243 23.8324 21.4668 21.8262 21.4668H6.17383C4.16761 21.4668 2.5332 19.8243 2.5332 17.7891V6.21094C2.5332 4.17571 4.16761 2.53325 6.17383 2.5332Z" stroke="white" stroke-width="1.06667" stroke-linecap="round" stroke-linejoin="round"/>
<defs>
<linearGradient id="paint0_linear_5148_23476" x1="-2" y1="31.0435" x2="37.5761" y2="26.0701" gradientUnits="userSpaceOnUse">
<stop stop-color="#AB3A6C"/>
<stop offset="1" stop-color="#E6533A"/>
</linearGradient>
</defs>
</svg>
