<svg width="28" height="24" viewBox="0 0 28 24" fill="none" xmlns="http://www.w3.org/2000/svg">
<rect width="28" height="24" rx="4" fill="url(#paint0_linear_9385_12710)"/>
<path d="M7.75 7.625H20.25M9.19231 3.25H18.8077C19.6058 3.25 20.25 4.22708 20.25 5.4375V18.5625C20.25 19.7729 19.6058 20.75 18.8077 20.75H9.19231C8.80978 20.75 8.44293 20.5195 8.17244 20.1093C7.90196 19.6991 7.75 19.1427 7.75 18.5625V5.4375C7.75 4.22708 8.39423 3.25 9.19231 3.25Z" stroke="white" stroke-width="1.125" stroke-linecap="round" stroke-linejoin="round"/>
<path d="M9.67308 7.625L11.5962 3.25M13.0385 7.625L14.9615 3.25M16.4038 7.625L18.3269 3.25" stroke="white" stroke-width="1.125" stroke-linecap="round" stroke-linejoin="round"/>
<path d="M12.3174 12.0498C12.3649 12.0477 12.4125 12.0578 12.4551 12.0791L15.7959 13.75C15.8422 13.7733 15.881 13.8094 15.9082 13.8535C15.9354 13.8976 15.9502 13.9482 15.9502 14C15.9502 14.0518 15.9354 14.1024 15.9082 14.1465C15.8946 14.1685 15.8782 14.1888 15.8594 14.2061L15.7959 14.25L12.4551 15.9209C12.4125 15.9422 12.3649 15.9523 12.3174 15.9502C12.2698 15.9481 12.2232 15.9333 12.1826 15.9082C12.1421 15.8832 12.1082 15.8482 12.085 15.8066C12.0619 15.7652 12.0499 15.7183 12.0498 15.6709V12.3291C12.0499 12.2817 12.0619 12.2348 12.085 12.1934C12.1082 12.1518 12.1421 12.1168 12.1826 12.0918C12.2232 12.0667 12.2698 12.0519 12.3174 12.0498Z" fill="white" stroke="white" stroke-width="0.6" stroke-linecap="round" stroke-linejoin="round"/>
<defs>
<linearGradient id="paint0_linear_9385_12710" x1="-2" y1="31.0435" x2="37.5761" y2="26.0701" gradientUnits="userSpaceOnUse">
<stop stop-color="#AB3A6C"/>
<stop offset="1" stop-color="#E6533A"/>
</linearGradient>
</defs>
</svg>
