<svg xmlns="http://www.w3.org/2000/svg" width="28" height="20" viewBox="0 0 28 20" fill="none"><path fill-rule="evenodd" clip-rule="evenodd" d="M0 2C0 0.895431 0.895431 0 2 0H13C13.5523 0 14 0.447716 14 1V19C14 19.5523 13.5523 20 13 20H2C0.895431 20 0 19.1046 0 18V2ZM17 11.75C17 11.3358 17.3358 11 17.75 11H22.25C22.6642 11 23 11.3358 23 11.75C23 12.1642 22.6642 12.5 22.25 12.5H17.75C17.3358 12.5 17 12.1642 17 11.75ZM17.75 8C17.3358 8 17 8.33579 17 8.75C17 9.16421 17.3358 9.5 17.75 9.5H24.25C24.6642 9.5 25 9.16421 25 8.75C25 8.33579 24.6642 8 24.25 8H17.75Z" fill="currentColor"></path></svg>