<svg width="16" height="16" viewBox="0 0 16 16" fill="none" xmlns="http://www.w3.org/2000/svg">
<path d="M6.66732 3.99992H9.33398C9.33398 3.6463 9.19351 3.30716 8.94346 3.05711C8.69341 2.80706 8.35427 2.66659 8.00065 2.66659C7.64703 2.66659 7.30789 2.80706 7.05784 3.05711C6.80779 3.30716 6.66732 3.6463 6.66732 3.99992ZM5.33398 3.99992C5.33398 3.29267 5.61494 2.6144 6.11503 2.1143C6.61513 1.6142 7.29341 1.33325 8.00065 1.33325C8.7079 1.33325 9.38617 1.6142 9.88627 2.1143C10.3864 2.6144 10.6673 3.29267 10.6673 3.99992H14.0007C14.1775 3.99992 14.347 4.07016 14.4721 4.19518C14.5971 4.32021 14.6673 4.48977 14.6673 4.66659C14.6673 4.8434 14.5971 5.01297 14.4721 5.13799C14.347 5.26301 14.1775 5.33325 14.0007 5.33325H13.4127L12.822 12.2266C12.7652 12.8922 12.4606 13.5123 11.9686 13.9641C11.4765 14.416 10.8327 14.6667 10.1647 14.6666H5.83665C5.16859 14.6667 4.52483 14.416 4.03275 13.9641C3.54067 13.5123 3.2361 12.8922 3.17932 12.2266L2.58865 5.33325H2.00065C1.82384 5.33325 1.65427 5.26301 1.52925 5.13799C1.40422 5.01297 1.33398 4.8434 1.33398 4.66659C1.33398 4.48977 1.40422 4.32021 1.52925 4.19518C1.65427 4.07016 1.82384 3.99992 2.00065 3.99992H5.33398ZM10.0007 7.99992C10.0007 7.82311 9.93041 7.65354 9.80539 7.52851C9.68036 7.40349 9.5108 7.33325 9.33398 7.33325C9.15717 7.33325 8.9876 7.40349 8.86258 7.52851C8.73756 7.65354 8.66732 7.82311 8.66732 7.99992V10.6666C8.66732 10.8434 8.73756 11.013 8.86258 11.138C8.9876 11.263 9.15717 11.3333 9.33398 11.3333C9.5108 11.3333 9.68036 11.263 9.80539 11.138C9.93041 11.013 10.0007 10.8434 10.0007 10.6666V7.99992ZM6.66732 7.33325C6.84413 7.33325 7.0137 7.40349 7.13872 7.52851C7.26375 7.65354 7.33398 7.82311 7.33398 7.99992V10.6666C7.33398 10.8434 7.26375 11.013 7.13872 11.138C7.0137 11.263 6.84413 11.3333 6.66732 11.3333C6.49051 11.3333 6.32094 11.263 6.19591 11.138C6.07089 11.013 6.00065 10.8434 6.00065 10.6666V7.99992C6.00065 7.82311 6.07089 7.65354 6.19591 7.52851C6.32094 7.40349 6.49051 7.33325 6.66732 7.33325ZM4.50732 12.1133C4.53572 12.4462 4.6881 12.7563 4.93428 12.9823C5.18046 13.2082 5.50251 13.3335 5.83665 13.3333H10.1647C10.4986 13.3331 10.8203 13.2077 11.0662 12.9818C11.3121 12.7559 11.4643 12.446 11.4927 12.1133L12.074 5.33325H3.92732L4.50732 12.1133Z" fill="#666666"/>
</svg>
