<svg width="16" height="16" viewBox="0 0 16 16" fill="none" xmlns="http://www.w3.org/2000/svg">
<path d="M10.4982 1.9646C10.7483 1.71464 11.0873 1.57422 11.4409 1.57422C11.7944 1.57422 12.1335 1.71464 12.3836 1.9646L14.0336 3.6146C14.1574 3.73842 14.2557 3.88543 14.3227 4.04723C14.3898 4.20903 14.4243 4.38246 14.4243 4.5576C14.4243 4.73274 14.3898 4.90617 14.3227 5.06797C14.2557 5.22977 14.1574 5.37678 14.0336 5.5006L6.1049 13.4293L1.85156 14.1466L2.56956 9.89327L10.4982 1.9646ZM10.3456 4.0026L11.9956 5.6526L13.0909 4.55727L11.4409 2.90793L10.3456 4.0026ZM11.0522 6.59593L9.4029 4.94593L3.81356 10.5353L3.47823 12.5199L5.4629 12.1853L11.0522 6.59593Z" fill="#666666"/>
</svg>
