<svg width="32" height="32" viewBox="0 0 32 32" fill="none" xmlns="http://www.w3.org/2000/svg">
<path d="M25.3333 14.3962H23V13.5941H19.8889V18.4066H23V17.6045H25.3333V19.2087C25.3333 19.6341 25.1694 20.0421 24.8777 20.343C24.586 20.6438 24.1903 20.8128 23.7778 20.8128H19.1111C18.6986 20.8128 18.3029 20.6438 18.0112 20.343C17.7194 20.0421 17.5556 19.6341 17.5556 19.2087V12.792C17.5556 12.3665 17.7194 11.9585 18.0112 11.6577C18.3029 11.3568 18.6986 11.1878 19.1111 11.1878H23.7778C24.1903 11.1878 24.586 11.3568 24.8777 11.6577C25.1694 11.9585 25.3333 12.3665 25.3333 12.792M14.4444 14.3962H12.1111V13.5941H9V18.4066H12.1111V17.6045H14.4444V19.2087C14.4444 19.6341 14.2806 20.0421 13.9888 20.343C13.6971 20.6438 13.3014 20.8128 12.8889 20.8128H8.22222C7.80966 20.8128 7.414 20.6438 7.12228 20.343C6.83056 20.0421 6.66667 19.6341 6.66667 19.2087V12.792C6.66667 12.3665 6.83056 11.9585 7.12228 11.6577C7.414 11.3568 7.80966 11.1878 8.22222 11.1878H12.8889C13.3014 11.1878 13.6971 11.3568 13.9888 11.6577C14.2806 11.9585 14.4444 12.3665 14.4444 12.792M26.8889 3.16699H5.11111C3.38444 3.16699 2 4.5947 2 6.37533V25.6253C2 26.4762 2.32778 27.2923 2.91122 27.894C3.49467 28.4956 4.28599 28.8337 5.11111 28.8337H26.8889C27.714 28.8337 28.5053 28.4956 29.0888 27.894C29.6722 27.2923 30 26.4762 30 25.6253V6.37533C30 5.52442 29.6722 4.70837 29.0888 4.10669C28.5053 3.50501 27.714 3.16699 26.8889 3.16699Z" fill="white"/>
</svg>
