<svg width="32" height="32" viewBox="0 0 32 32" fill="none" xmlns="http://www.w3.org/2000/svg">
<path fill-rule="evenodd" clip-rule="evenodd" d="M14.466 2.86795C16.25 1.34395 19 2.61395 19 4.95995V27.04C19 29.388 16.25 30.656 14.466 29.134L8.726 24.24C8.5459 24.0859 8.31697 24.0009 8.08 24H4C2.93913 24 1.92172 23.5785 1.17157 22.8284C0.421427 22.0782 0 21.0608 0 20V12C0 10.9391 0.421427 9.92167 1.17157 9.17153C1.92172 8.42138 2.93913 7.99995 4 7.99995H8.08C8.31766 7.9995 8.54738 7.91441 8.728 7.75995L14.466 2.86795ZM16 5.49995L10.674 10.04C9.95048 10.6587 9.03 10.9991 8.078 11H4C3.73478 11 3.48043 11.1053 3.29289 11.2928C3.10536 11.4804 3 11.7347 3 12V20C3 20.2652 3.10536 20.5195 3.29289 20.7071C3.48043 20.8946 3.73478 21 4 21H8.08C9.03081 21.0002 9.95044 21.3391 10.674 21.956L16 26.498V5.49995ZM25.94 22.938C26.8515 22.0266 27.5745 20.9447 28.0677 19.7539C28.561 18.5631 28.8149 17.2869 28.8149 15.998C28.8149 14.7091 28.561 13.4328 28.0677 12.242C27.5745 11.0512 26.8515 9.96928 25.94 9.05795L28.06 6.93795C30.4626 9.34097 31.8123 12.5999 31.8123 15.998C31.8123 19.396 30.4626 22.6549 28.06 25.058L25.94 22.938ZM21.94 18.938C22.7192 18.1579 23.1569 17.1005 23.1569 15.998C23.1569 14.8954 22.7192 13.838 21.94 13.058L24.06 10.938C25.401 12.2805 26.1542 14.1004 26.1542 15.998C26.1542 17.8955 25.401 19.7154 24.06 21.058L21.94 18.938Z" fill="white"/>
</svg>
