<svg width="32" height="32" viewBox="0 0 32 32" fill="none" xmlns="http://www.w3.org/2000/svg">
<path fill-rule="evenodd" clip-rule="evenodd" d="M22.9247 8.07537C18.8241 3.97488 12.1759 3.97488 8.07537 8.07537C3.97488 12.1759 3.97488 18.8241 8.07537 22.9247C10.1259 24.9752 12.8105 26 15.5 26H17.5V29H15.5C12.0474 29 8.5898 27.6817 5.95405 25.046C0.681981 19.7739 0.681982 11.2261 5.95405 5.95405C11.2261 0.681983 19.7739 0.681983 25.046 5.95405L27.0003 7.90837V4H30.0003V11.5C30.0003 12.3284 29.3287 13 28.5003 13H20.9999V10H24.8492L22.9247 8.07537Z" fill="white"/>
<path d="M19.5457 24.9198C18.8642 24.9198 18.2573 24.7988 17.7249 24.5568C17.1956 24.3116 16.7773 23.9753 16.47 23.5479C16.1658 23.1172 16.0091 22.6206 16 22.058H17.9896C18.0018 22.2937 18.0763 22.5012 18.2132 22.6803C18.3531 22.8564 18.5387 22.9931 18.7699 23.0905C19.0011 23.188 19.2612 23.2367 19.5502 23.2367C19.8514 23.2367 20.1176 23.1817 20.3488 23.0717C20.58 22.9617 20.761 22.8092 20.8918 22.6143C21.0226 22.4195 21.088 22.1947 21.088 21.9401C21.088 21.6824 21.0181 21.4545 20.8781 21.2565C20.7412 21.0553 20.5435 20.8982 20.2849 20.785C20.0294 20.6719 19.7251 20.6153 19.3723 20.6153H18.5007V19.116H19.3723C19.6704 19.116 19.9335 19.0625 20.1617 18.9557C20.3929 18.8488 20.5724 18.7011 20.7002 18.5125C20.8279 18.3208 20.8918 18.0976 20.8918 17.843C20.8918 17.601 20.8355 17.3888 20.723 17.2065C20.6135 17.0211 20.4583 16.8765 20.2575 16.7727C20.0598 16.669 19.8286 16.6172 19.5639 16.6172C19.2962 16.6172 19.0513 16.6675 18.8292 16.768C18.6071 16.8655 18.4292 17.0053 18.2953 17.1876C18.1615 17.37 18.09 17.5837 18.0808 17.8289H16.1871C16.1962 17.2725 16.3499 16.7822 16.648 16.3579C16.9461 15.9335 17.3477 15.6019 17.8527 15.363C18.3607 15.121 18.9342 15 19.573 15C20.218 15 20.7823 15.121 21.266 15.363C21.7497 15.6051 22.1254 15.932 22.3931 16.3437C22.6639 16.7523 22.7977 17.2112 22.7947 17.7204C22.7977 18.261 22.635 18.7121 22.3064 19.0736C21.9809 19.435 21.5565 19.6645 21.0333 19.7619V19.8373C21.7208 19.9285 22.2441 20.1752 22.603 20.5776C22.9651 20.9767 23.1446 21.4765 23.1415 22.0769C23.1446 22.6269 22.9909 23.1157 22.6806 23.5431C22.3734 23.9706 21.949 24.3069 21.4075 24.5521C20.866 24.7973 20.2454 24.9198 19.5457 24.9198Z" fill="white"/>
<path d="M28.2261 25C27.4413 24.9969 26.7659 24.7973 26.2 24.4012C25.6372 24.0052 25.2037 23.4316 24.8995 22.6803C24.5983 21.9291 24.4493 21.0255 24.4523 19.9694C24.4523 18.9164 24.6029 18.019 24.9041 17.2772C25.2083 16.5354 25.6418 15.9712 26.2046 15.5846C26.7705 15.1949 27.4443 15 28.2261 15C29.008 15 29.6803 15.1949 30.2431 15.5846C30.8089 15.9744 31.244 16.5402 31.5482 17.2819C31.8524 18.0206 32.003 18.9164 32 19.9694C32 21.0286 31.8478 21.9338 31.5436 22.6851C31.2425 23.4363 30.8105 24.0099 30.2477 24.4059C29.6849 24.802 29.011 25 28.2261 25ZM28.2261 23.3074C28.7616 23.3074 29.189 23.0292 29.5084 22.4729C29.8278 21.9165 29.986 21.082 29.983 19.9694C29.983 19.237 29.91 18.6272 29.764 18.14C29.621 17.6528 29.4171 17.2867 29.1525 17.0415C28.8908 16.7963 28.5821 16.6737 28.2261 16.6737C27.6938 16.6737 27.2678 16.9488 26.9484 17.4988C26.629 18.0489 26.4678 18.8724 26.4647 19.9694C26.4647 20.7111 26.5362 21.3303 26.6792 21.827C26.8252 22.3204 27.0306 22.6913 27.2952 22.9397C27.5599 23.1848 27.8702 23.3074 28.2261 23.3074Z" fill="white"/>
</svg>
