<svg width="32" height="32" viewBox="0 0 32 32" fill="none" xmlns="http://www.w3.org/2000/svg">
<path fill-rule="evenodd" clip-rule="evenodd" d="M4 6C4 4.93913 4.42143 3.92172 5.17157 3.17157C5.92172 2.42143 6.93913 2 8 2H10C11.0609 2 12.0783 2.42143 12.8284 3.17157C13.5786 3.92172 14 4.93913 14 6V26C14 27.0609 13.5786 28.0783 12.8284 28.8284C12.0783 29.5786 11.0609 30 10 30H8C6.93913 30 5.92172 29.5786 5.17157 28.8284C4.42143 28.0783 4 27.0609 4 26V6ZM18 6C18 4.93913 18.4214 3.92172 19.1716 3.17157C19.9217 2.42143 20.9391 2 22 2H24C25.0609 2 26.0783 2.42143 26.8284 3.17157C27.5786 3.92172 28 4.93913 28 6V26C28 27.0609 27.5786 28.0783 26.8284 28.8284C26.0783 29.5786 25.0609 30 24 30H22C20.9391 30 19.9217 29.5786 19.1716 28.8284C18.4214 28.0783 18 27.0609 18 26V6Z" fill="white"/>
</svg>
