<svg width="32" height="32" viewBox="0 0 32 32" fill="none" xmlns="http://www.w3.org/2000/svg">
<path fill-rule="evenodd" clip-rule="evenodd" d="M14.466 2.86795C16.25 1.34395 19 2.61395 19 4.95995V27.04C19 29.388 16.25 30.656 14.466 29.134L8.726 24.24C8.5459 24.0859 8.31697 24.0009 8.08 24H4C2.93913 24 1.92172 23.5785 1.17157 22.8284C0.421427 22.0782 0 21.0608 0 20V12C0 10.9391 0.421427 9.92167 1.17157 9.17153C1.92172 8.42138 2.93913 7.99995 4 7.99995H8.08C8.31766 7.9995 8.54738 7.91441 8.728 7.75995L14.466 2.86795ZM16 5.49995L10.674 10.04C9.95048 10.6587 9.03 10.9991 8.078 11H4C3.73478 11 3.48043 11.1053 3.29289 11.2928C3.10536 11.4804 3 11.7347 3 12V20C3 20.2652 3.10536 20.5195 3.29289 20.7071C3.48043 20.8946 3.73478 21 4 21H8.08C9.03081 21.0002 9.95044 21.3391 10.674 21.956L16 26.498V5.49995ZM28.62 16L31.56 13.06L29.44 10.938L26.5 13.878L23.56 10.938L21.44 13.058L24.38 16L21.44 18.94L23.56 21.06L26.5 18.12L29.44 21.06L31.56 18.94L28.62 16Z" fill="white"/>
</svg>
