<svg width="32" height="32" viewBox="0 0 32 32" fill="none" xmlns="http://www.w3.org/2000/svg">
<path d="M24.8757 29.1667C23.6973 29.1667 22.7621 28.8749 22.0703 28.291C21.3784 27.7073 21.0216 26.9181 21 25.9235H23.4324C23.454 26.2802 23.5892 26.5613 23.8379 26.7667C24.0865 26.9613 24.4324 27.0586 24.8757 27.0586C25.3513 27.0586 25.7135 26.9397 25.9621 26.7019C26.2216 26.4533 26.3513 26.1127 26.3513 25.6802V24.5289C26.3513 24.0857 26.2271 23.7505 25.9784 23.5235C25.7297 23.2857 25.3621 23.1667 24.8757 23.1667C24.5837 23.1667 24.3297 23.2099 24.1135 23.2965C23.9081 23.3722 23.746 23.491 23.6271 23.6533H21.2757V17.1667H28.346V19.3559H23.6432C23.6373 19.9211 23.6108 22.1237 23.6108 22.4642C23.6887 22.1557 23.8935 21.8745 24.1621 21.6749C24.5513 21.383 25.0757 21.237 25.7352 21.237C26.6973 21.237 27.4432 21.5289 27.9729 22.1127C28.5135 22.6857 28.7837 23.491 28.7837 24.5289V25.6802C28.7837 26.7613 28.4379 27.6154 27.746 28.2425C27.054 28.8586 26.0973 29.1667 24.8757 29.1667Z" fill="white"/>
<path fill-rule="evenodd" clip-rule="evenodd" d="M20.7461 25.6735H23.6693L23.6836 25.9083C23.7014 26.2029 23.8085 26.4158 23.9961 26.5719C24.186 26.7194 24.4696 26.8086 24.8773 26.8086C25.3134 26.8086 25.6041 26.6999 25.7909 26.5213C25.9913 26.3291 26.1029 26.0594 26.1029 25.6802V24.5289C26.1029 24.1325 25.993 23.8741 25.8114 23.7081L25.807 23.7042C25.6213 23.5265 25.3261 23.4167 24.8773 23.4167C24.6094 23.4167 24.3882 23.4565 24.208 23.5286L24.2016 23.5311C24.038 23.5914 23.9176 23.6821 23.8302 23.801L23.7553 23.9033H21.0273V16.9167H28.5976V19.6059H23.8921C23.8906 19.7405 23.8888 19.9034 23.8866 20.0826C23.8814 20.547 23.8749 21.1206 23.8698 21.5934C23.9161 21.5513 23.9642 21.5117 24.0142 21.4745C24.4597 21.1406 25.0424 20.987 25.7368 20.987C26.7516 20.987 27.5708 21.2969 28.1581 21.9429C28.7537 22.5753 29.0353 23.4491 29.0353 24.5289V25.6802C29.0353 26.8197 28.668 27.7455 27.9154 28.4277L27.9138 28.4291C27.1632 29.0977 26.1402 29.4167 24.8773 29.4167C23.658 29.4167 22.6597 29.1142 21.9106 28.4821C21.1581 27.8471 20.7746 26.9873 20.7516 25.9289L20.7461 25.6735ZM27.9745 22.1127C27.4448 21.5289 26.6989 21.237 25.7368 21.237C25.0773 21.237 24.5529 21.383 24.1637 21.6749C24.052 21.7578 23.9513 21.855 23.8661 21.9623C23.7466 22.1131 23.6578 22.2839 23.6124 22.4642C23.6124 22.3751 23.6142 22.1589 23.617 21.8779C23.622 21.3662 23.6304 20.6398 23.6368 20.0763C23.6402 19.7655 23.6433 19.5043 23.6448 19.3559H28.3476V17.1667H21.2773V23.6533H23.6286C23.7476 23.491 23.9097 23.3722 24.115 23.2965C24.3313 23.2099 24.5853 23.1667 24.8773 23.1667C25.3637 23.1667 25.7313 23.2857 25.98 23.5235M21.2516 25.9235H21.0016L21.2516 25.9181C21.2516 25.9199 21.2516 25.9217 21.2516 25.9235ZM21.0144 26.1735H21.0016V25.9235C21.0034 26.0083 21.0077 26.0917 21.0144 26.1735ZM27.9745 22.1127C28.515 22.6857 28.7853 23.491 28.7853 24.5289L27.9745 22.1127ZM28.7853 25.6802C28.7853 26.7613 28.4394 27.6154 27.7476 28.2425L28.7853 25.6802Z" fill="white"/>
<path fill-rule="evenodd" clip-rule="evenodd" d="M22.9247 8.74212C18.8241 4.64162 12.1759 4.64162 8.07537 8.74212C3.97488 12.8426 3.97488 19.4909 8.07537 23.5914C10.1259 25.6419 12.8105 26.6667 15.5 26.6667H17.5V29.6667H15.5C12.0474 29.6667 8.5898 28.3485 5.95405 25.7127C0.681981 20.4406 0.681982 11.8929 5.95405 6.6208C11.2261 1.34873 19.7739 1.34873 25.046 6.6208L27.0003 8.57512V4.66674H30.0003V12.1667C30.0003 12.9952 29.3287 13.6667 28.5003 13.6667H20.9999V10.6667H24.8492L22.9247 8.74212Z" fill="white"/>
</svg>
