<svg width="32" height="32" viewBox="0 0 32 32" fill="none" xmlns="http://www.w3.org/2000/svg">
<path fill-rule="evenodd" clip-rule="evenodd" d="M5 7.34V2H2V12C2 12.828 2.672 13.5 3.5 13.5H13V10.5H6.472C7.76833 8.25468 9.8161 6.53941 12.2539 5.65688C14.6918 4.77435 17.363 4.78128 19.7962 5.67645C22.2295 6.57162 24.2683 8.29749 25.553 10.5495C26.8376 12.8015 27.2856 15.4349 26.8177 17.985C26.3498 20.5351 24.9962 22.838 22.9958 24.4873C20.9953 26.1366 18.4766 27.0263 15.8841 26.9994C13.2916 26.9725 10.7919 26.0307 8.82609 24.3402C6.86032 22.6498 5.55483 20.3193 5.14 17.76L2.18 18.24C2.75334 21.7044 4.60728 24.827 7.37439 26.9888C10.1415 29.1507 13.6198 30.1942 17.12 29.9123C20.6202 29.6305 23.8868 28.044 26.2723 25.4672C28.6579 22.8905 29.9883 19.5115 30 16C29.9999 13.0897 29.0929 10.2517 27.4051 7.88086C25.7172 5.50999 23.3324 3.72405 20.5825 2.77146C17.8325 1.81886 14.854 1.74696 12.0612 2.56575C9.26845 3.38454 6.80029 5.05333 5 7.34Z" fill="white"/>
</svg>
