<svg width="32" height="32" viewBox="0 0 32 32" fill="none" xmlns="http://www.w3.org/2000/svg">
<path d="M7.37567 28.5C6.19729 28.5 5.26216 28.2081 4.57027 27.6243C3.87837 27.0405 3.52161 26.2513 3.5 25.2568H5.93243C5.95405 25.6135 6.08919 25.8945 6.33784 26.1C6.58648 26.2945 6.93243 26.3919 7.37567 26.3919C7.85135 26.3919 8.21351 26.2729 8.46216 26.0352C8.72161 25.7865 8.85135 25.446 8.85135 25.0135V23.8621C8.85135 23.4189 8.72703 23.0837 8.47837 22.8568C8.22972 22.6189 7.86216 22.5 7.37567 22.5C7.08377 22.5 6.82972 22.5432 6.61351 22.6297C6.40811 22.7055 6.24595 22.8243 6.12703 22.9865H3.77567V16.5H10.8459V18.6892H6.14324C6.13729 19.2544 6.11081 21.4569 6.11081 21.7975C6.18872 21.4889 6.39352 21.2077 6.66216 21.0081C7.05135 20.7163 7.57567 20.5703 8.23513 20.5703C9.19729 20.5703 9.94324 20.8621 10.473 21.446C11.0135 22.0189 11.2838 22.8243 11.2838 23.8621V25.0135C11.2838 26.0945 10.9378 26.9487 10.2459 27.5757C9.55405 28.1919 8.59729 28.5 7.37567 28.5Z" fill="white"/>
<path fill-rule="evenodd" clip-rule="evenodd" d="M3.24609 25.0068H6.16932L6.18356 25.2416C6.20141 25.5361 6.30852 25.7491 6.49608 25.9052C6.68603 26.0527 6.96963 26.1419 7.37725 26.1419C7.81349 26.1419 8.10416 26.0332 8.29093 25.8545C8.49137 25.6624 8.60293 25.3927 8.60293 25.0135V23.8621C8.60293 23.4657 8.49309 23.2073 8.3114 23.0413L8.30711 23.0375C8.12128 22.8597 7.82612 22.75 7.37725 22.75C7.10941 22.75 6.88819 22.7897 6.70795 22.8619L6.70156 22.8644C6.53797 22.9247 6.41752 23.0153 6.33021 23.1343L6.25529 23.2365H3.52725V16.25H11.0975V18.9392H6.39209C6.39059 19.0737 6.38873 19.2367 6.38669 19.4159C6.3814 19.8803 6.37487 20.4539 6.36991 20.9267C6.41607 20.8845 6.46428 20.8449 6.5142 20.8077C6.95967 20.4739 7.54239 20.3203 8.23672 20.3203C9.25164 20.3203 10.0708 20.6301 10.6581 21.2761C11.2537 21.9085 11.5354 22.7824 11.5354 23.8621V25.0135C11.5354 26.1529 11.168 27.0788 10.4154 27.7609L10.4138 27.7624C9.66317 28.4309 8.64028 28.75 7.37725 28.75C6.15796 28.75 5.15976 28.4475 4.41064 27.8153C3.65809 27.1804 3.27465 26.3205 3.25164 25.2621L3.24609 25.0068ZM10.4746 21.446C9.94483 20.8621 9.19888 20.5703 8.23672 20.5703C7.57725 20.5703 7.05293 20.7163 6.66375 21.0081C6.55199 21.0911 6.45128 21.1883 6.36616 21.2956C6.24667 21.4464 6.15789 21.6172 6.1124 21.7975C6.1124 21.7084 6.1142 21.4921 6.11699 21.2112C6.12204 20.6995 6.13032 19.9731 6.13675 19.4096C6.14029 19.0988 6.14327 18.8376 6.14483 18.6892H10.8475V16.5H3.77725V22.9865H6.12861C6.24753 22.8243 6.40969 22.7055 6.61509 22.6297C6.83131 22.5432 7.08536 22.5 7.37725 22.5C7.86375 22.5 8.23131 22.6189 8.47996 22.8568M3.75164 25.2568H3.50159L3.75152 25.2513L3.75164 25.2568ZM3.51443 25.5068H3.50159V25.2568C3.50343 25.3416 3.50771 25.4249 3.51443 25.5068ZM10.4746 21.446C11.0151 22.0189 11.2854 22.8243 11.2854 23.8621L10.4746 21.446ZM11.2854 25.0135C11.2854 26.0945 10.9394 26.9487 10.2475 27.5757L11.2854 25.0135Z" fill="white"/>
<path fill-rule="evenodd" clip-rule="evenodd" d="M6.96911 5.95406C12.2412 0.681982 20.7889 0.681982 26.0609 5.95406C31.3331 11.2261 31.3331 19.7739 26.0609 25.046C23.4252 27.6817 19.9677 29 16.5151 29H14.5004V26H16.5151C19.2045 26 21.8891 24.9752 23.9397 22.9247C28.0401 18.8241 28.0401 12.1759 23.9397 8.07538C19.8392 3.97488 13.1909 3.97488 9.09043 8.07538L7.1658 10H11.0004V13H3.5C3.10217 13 2.72064 12.842 2.43933 12.5607C2.15804 12.2794 2 11.8978 2 11.5V4H5V7.92316L6.96911 5.95406Z" fill="white"/>
</svg>
