<svg width="32" height="32" viewBox="0 0 32 32" fill="none" xmlns="http://www.w3.org/2000/svg">
<path fill-rule="evenodd" clip-rule="evenodd" d="M0 8C0 6.93913 0.421427 5.92172 1.17157 5.17157C1.92172 4.42143 2.93913 4 4 4H28C29.0609 4 30.0783 4.42143 30.8284 5.17157C31.5786 5.92172 32 6.93913 32 8V24C32 25.0609 31.5786 26.0783 30.8284 26.8284C30.0783 27.5786 29.0609 28 28 28H4C2.93913 28 1.92172 27.5786 1.17157 26.8284C0.421427 26.0783 0 25.0609 0 24V8ZM4 7C3.73478 7 3.48043 7.10536 3.29289 7.29289C3.10536 7.48043 3 7.73478 3 8V24C3 24.2652 3.10536 24.5196 3.29289 24.7071C3.48043 24.8946 3.73478 25 4 25H28C28.2652 25 28.5196 24.8946 28.7071 24.7071C28.8946 24.5196 29 24.2652 29 24V8C29 7.73478 28.8946 7.48043 28.7071 7.29289C28.5196 7.10536 28.2652 7 28 7H4ZM13.5 15C13.5 14.6022 13.658 14.2206 13.9393 13.9393C14.2206 13.658 14.6022 13.5 15 13.5H24.5C24.8978 13.5 25.2794 13.658 25.5607 13.9393C25.842 14.2206 26 14.6022 26 15V20.5C26 20.8978 25.842 21.2794 25.5607 21.5607C25.2794 21.842 24.8978 22 24.5 22H15C14.6022 22 14.2206 21.842 13.9393 21.5607C13.658 21.2794 13.5 20.8978 13.5 20.5V15Z" fill="white"/>
</svg>
