<svg width="32" height="32" viewBox="0 0 32 32" fill="none" xmlns="http://www.w3.org/2000/svg">
<path fill-rule="evenodd" clip-rule="evenodd" d="M22.9247 8.07537C18.8241 3.97488 12.1759 3.97488 8.07537 8.07537C3.97488 12.1759 3.97488 18.8241 8.07537 22.9247C10.1259 24.9752 12.8105 26 15.5 26H17.5V29H15.5C12.0474 29 8.5898 27.6817 5.95405 25.046C0.681981 19.7739 0.681982 11.2261 5.95405 5.95405C11.2261 0.681983 19.7739 0.681983 25.046 5.95405L27.0003 7.90837V4H30.0003V11.5C30.0003 12.3284 29.3287 13 28.5003 13H20.9999V10H24.8492L22.9247 8.07537Z" fill="white"/>
<path d="M21.6648 16.132V25.7878H19.6233V18.0698H19.5667L17.3555 19.4559V17.6455L19.7459 16.132H21.6648Z" fill="white"/>
<path d="M27.7456 26C26.9347 25.9969 26.2369 25.7973 25.6523 25.4012C25.0708 25.0052 24.6229 24.4316 24.3086 23.6803C23.9974 22.9291 23.8434 22.0255 23.8465 20.9694C23.8465 19.9164 24.0021 19.019 24.3133 18.2772C24.6276 17.5354 25.0755 16.9712 25.657 16.5846C26.2416 16.1949 26.9378 16 27.7456 16C28.5534 16 29.2481 16.1949 29.8295 16.5846C30.4142 16.9744 30.8636 17.5402 31.178 18.2819C31.4923 19.0206 31.6479 19.9164 31.6447 20.9694C31.6447 22.0286 31.4876 22.9338 31.1732 23.6851C30.8621 24.4363 30.4157 25.0099 29.8343 25.4059C29.2528 25.802 28.5566 26 27.7456 26ZM27.7456 24.3074C28.2988 24.3074 28.7404 24.0292 29.0705 23.4729C29.4005 22.9165 29.5639 22.082 29.5608 20.9694C29.5608 20.237 29.4854 19.6272 29.3345 19.14C29.1868 18.6528 28.9762 18.2867 28.7027 18.0415C28.4324 17.7963 28.1134 17.6737 27.7456 17.6737C27.1956 17.6737 26.7555 17.9488 26.4255 18.4988C26.0954 19.0489 25.9289 19.8724 25.9257 20.9694C25.9257 21.7111 25.9996 22.3303 26.1473 22.827C26.2982 23.3204 26.5103 23.6913 26.7838 23.9397C27.0573 24.1848 27.3779 24.3074 27.7456 24.3074Z" fill="white"/>
</svg>
