<svg width="32" height="32" viewBox="0 0 32 32" fill="none" xmlns="http://www.w3.org/2000/svg">
<path d="M3.54566 24.9198C2.86421 24.9198 2.2573 24.7988 1.72491 24.5568C1.19558 24.3116 0.777276 23.9753 0.470016 23.5479C0.165799 23.1172 0.00912653 22.6206 0 22.058H1.98958C2.00175 22.2937 2.07629 22.5012 2.21318 22.6803C2.35312 22.8564 2.5387 22.9931 2.7699 23.0905C3.00111 23.188 3.26121 23.2367 3.55022 23.2367C3.8514 23.2367 4.11759 23.1817 4.34879 23.0717C4.58 22.9617 4.76101 22.8092 4.89182 22.6143C5.02264 22.4195 5.08804 22.1947 5.08804 21.9401C5.08804 21.6824 5.01807 21.4545 4.87813 21.2565C4.74123 21.0553 4.54349 20.8982 4.28491 20.785C4.02936 20.6719 3.72515 20.6153 3.37225 20.6153H2.50067V19.116H3.37225C3.67039 19.116 3.93354 19.0625 4.1617 18.9557C4.39291 18.8488 4.57239 18.7011 4.70017 18.5125C4.82794 18.3208 4.89182 18.0976 4.89182 17.843C4.89182 17.601 4.83554 17.3888 4.72298 17.2065C4.61346 17.0211 4.45831 16.8765 4.25753 16.7727C4.05979 16.669 3.82858 16.6172 3.56391 16.6172C3.2962 16.6172 3.0513 16.6675 2.82923 16.768C2.60715 16.8655 2.42918 17.0053 2.29532 17.1876C2.16147 17.37 2.08998 17.5837 2.08085 17.8289H0.187094C0.19622 17.2725 0.34985 16.7822 0.647984 16.3579C0.946117 15.9335 1.34768 15.6019 1.85269 15.363C2.36073 15.121 2.93418 15 3.57304 15C4.21798 15 4.7823 15.121 5.26601 15.363C5.74972 15.6051 6.12543 15.932 6.39314 16.3437C6.66389 16.7523 6.79775 17.2112 6.79471 17.7204C6.79775 18.261 6.63499 18.7121 6.30643 19.0736C5.98092 19.435 5.55654 19.6645 5.03328 19.7619V19.8373C5.72082 19.9285 6.24407 20.1752 6.60305 20.5776C6.96507 20.9767 7.14456 21.4765 7.14151 22.0769C7.14456 22.6269 6.99092 23.1157 6.68062 23.5431C6.37336 23.9706 5.94898 24.3069 5.40747 24.5521C4.86596 24.7973 4.24536 24.9198 3.54566 24.9198Z" fill="white"/>
<path d="M12.2261 25C11.4413 24.9969 10.7659 24.7973 10.2 24.4012C9.63724 24.0052 9.20373 23.4316 8.89951 22.6803C8.59834 21.9291 8.44927 21.0255 8.45231 19.9694C8.45231 18.9164 8.6029 18.019 8.90407 17.2772C9.20829 16.5354 9.6418 15.9712 10.2046 15.5846C10.7705 15.1949 11.4443 15 12.2261 15C13.008 15 13.6803 15.1949 14.2431 15.5846C14.8089 15.9744 15.244 16.5402 15.5482 17.2819C15.8524 18.0206 16.003 18.9164 16 19.9694C16 21.0286 15.8478 21.9338 15.5436 22.6851C15.2425 23.4363 14.8105 24.0099 14.2477 24.4059C13.6849 24.802 13.011 25 12.2261 25ZM12.2261 23.3074C12.7616 23.3074 13.189 23.0292 13.5084 22.4729C13.8278 21.9165 13.986 21.082 13.983 19.9694C13.983 19.237 13.91 18.6272 13.764 18.14C13.621 17.6528 13.4171 17.2867 13.1525 17.0415C12.8908 16.7963 12.5821 16.6737 12.2261 16.6737C11.6938 16.6737 11.2678 16.9488 10.9484 17.4988C10.629 18.0489 10.4678 18.8724 10.4647 19.9694C10.4647 20.7111 10.5362 21.3303 10.6792 21.827C10.8252 22.3204 11.0306 22.6913 11.2952 22.9397C11.5599 23.1848 11.8702 23.3074 12.2261 23.3074Z" fill="white"/>
<path fill-rule="evenodd" clip-rule="evenodd" d="M6.96911 5.95406C12.2412 0.681982 20.7889 0.681982 26.0609 5.95406C31.3331 11.2261 31.3331 19.7739 26.0609 25.046C23.4252 27.6817 19.9677 29 16.5151 29H14.5004V26H16.5151C19.2045 26 21.8891 24.9752 23.9397 22.9247C28.0401 18.8241 28.0401 12.1759 23.9397 8.07538C19.8392 3.97488 13.1909 3.97488 9.09043 8.07538L7.1658 10H11.0004V13H3.5C3.10217 13 2.72064 12.842 2.43933 12.5607C2.15804 12.2794 2 11.8978 2 11.5V4H5V7.92316L6.96911 5.95406Z" fill="white"/>
</svg>
