<svg width="32" height="32" viewBox="0 0 32 32" fill="none" xmlns="http://www.w3.org/2000/svg">
<path fill-rule="evenodd" clip-rule="evenodd" d="M14.466 2.8682C16.25 1.3442 19 2.6142 19 4.9602V27.0402C19 29.3882 16.25 30.6562 14.466 29.1342L8.726 24.2402C8.5459 24.0862 8.31697 24.0011 8.08 24.0002H4C2.93913 24.0002 1.92172 23.5788 1.17157 22.8286C0.421427 22.0785 0 21.0611 0 20.0002V12.0002C0 10.9393 0.421427 9.92192 1.17157 9.17177C1.92172 8.42162 2.93913 8.0002 4 8.0002H8.08C8.31766 7.99974 8.54738 7.91466 8.728 7.7602L14.466 2.8682ZM16 5.5002L10.674 10.0402C9.95048 10.6589 9.03 10.9993 8.078 11.0002H4C3.73478 11.0002 3.48043 11.1056 3.29289 11.2931C3.10536 11.4806 3 11.735 3 12.0002V20.0002C3 20.2654 3.10536 20.5198 3.29289 20.7073C3.48043 20.8948 3.73478 21.0002 4 21.0002H8.08C9.03081 21.0004 9.95044 21.3394 10.674 21.9562L16 26.4982V5.5002Z" fill="white"/>
</svg>
