<svg width="32" height="32" viewBox="0 0 32 32" fill="none" xmlns="http://www.w3.org/2000/svg">
<g clip-path="url(#clip0_4208_83019)">
<path fill-rule="evenodd" clip-rule="evenodd" d="M12.1153 0.924C12.229 0.650566 12.4211 0.416911 12.6674 0.252479C12.9137 0.0880474 13.2032 0.000197381 13.4993 0L18.4993 0C18.7954 0.000197381 19.0849 0.0880474 19.3312 0.252479C19.5775 0.416911 19.7696 0.650566 19.8833 0.924L21.9353 5.848L27.0913 5.1C27.3881 5.05696 27.691 5.1039 27.9609 5.23474C28.2308 5.36557 28.4552 5.57431 28.6053 5.834L31.1053 10.166C31.252 10.4202 31.3208 10.7118 31.3034 11.0047C31.286 11.2976 31.183 11.579 31.0073 11.814L27.8733 16L31.0073 20.186C31.3673 20.666 31.4073 21.316 31.1073 21.836L28.6073 26.166C28.4571 26.426 28.2323 26.635 27.962 26.7659C27.6918 26.8967 27.3884 26.9435 27.0913 26.9L21.9353 26.152L19.8833 31.078C19.7693 31.3511 19.577 31.5843 19.3308 31.7484C19.0845 31.9124 18.7952 32 18.4993 32H13.4993C13.2034 32 12.9141 31.9124 12.6678 31.7484C12.4216 31.5843 12.2293 31.3511 12.1153 31.078L10.0633 26.152L4.9073 26.9C4.61048 26.943 4.30757 26.8961 4.03769 26.7653C3.76782 26.6344 3.54336 26.4257 3.3933 26.166L0.893299 21.836C0.746221 21.5816 0.677102 21.2896 0.694524 20.9963C0.711946 20.703 0.815142 20.4212 0.991299 20.186L4.1253 16L0.991299 11.814C0.815247 11.5792 0.711936 11.2979 0.694161 11.005C0.676386 10.7121 0.744928 10.4204 0.891299 10.166L3.3913 5.834C3.54149 5.57396 3.76627 5.36499 4.03655 5.23413C4.30683 5.10327 4.61017 5.05654 4.9073 5.1L10.0633 5.848L12.1153 0.924ZM14.4993 3L12.7573 7.18C12.2733 8.34 11.0673 9.026 9.8233 8.846L5.4833 8.216L3.9853 10.808L6.6393 14.352C7.3713 15.328 7.3713 16.672 6.6393 17.648L3.9853 21.192L5.4833 23.784L9.8233 23.154C10.4277 23.0662 11.0441 23.1821 11.5754 23.4834C12.1066 23.7846 12.5225 24.2542 12.7573 24.818L14.4993 29H17.4993L19.2413 24.82C19.7253 23.66 20.9313 22.974 22.1753 23.154L26.5153 23.784L28.0133 21.192L25.3593 17.648C25.0032 17.1723 24.8108 16.5942 24.8108 16C24.8108 15.4058 25.0032 14.8277 25.3593 14.352L28.0133 10.808L26.5153 8.216L22.1753 8.846C21.5704 8.93415 20.9533 8.81821 20.4216 8.51651C19.8899 8.2148 19.4739 7.74453 19.2393 7.18L17.4993 3H14.4993ZM15.9993 13C15.2036 13 14.4406 13.3161 13.878 13.8787C13.3154 14.4413 12.9993 15.2044 12.9993 16C12.9993 16.7956 13.3154 17.5587 13.878 18.1213C14.4406 18.6839 15.2036 19 15.9993 19C16.7949 19 17.558 18.6839 18.1206 18.1213C18.6832 17.5587 18.9993 16.7956 18.9993 16C18.9993 15.2044 18.6832 14.4413 18.1206 13.8787C17.558 13.3161 16.7949 13 15.9993 13ZM9.9993 16C9.9993 14.4087 10.6314 12.8826 11.7567 11.7574C12.8819 10.6321 14.408 10 15.9993 10C17.5906 10 19.1167 10.6321 20.2419 11.7574C21.3672 12.8826 21.9993 14.4087 21.9993 16C21.9993 17.5913 21.3672 19.1174 20.2419 20.2426C19.1167 21.3679 17.5906 22 15.9993 22C14.408 22 12.8819 21.3679 11.7567 20.2426C10.6314 19.1174 9.9993 17.5913 9.9993 16Z" fill="white"/>
</g>
<defs>
<clipPath id="clip0_4208_83019">
<rect width="32" height="32" fill="white"/>
</clipPath>
</defs>
</svg>
