<svg width="32" height="32" viewBox="0 0 32 32" fill="none" xmlns="http://www.w3.org/2000/svg">
<path d="M4.66476 16.132V25.7878H2.62327V18.0698H2.56669L0.355469 19.4559V17.6455L2.74585 16.132H4.66476Z" fill="white"/>
<path d="M10.7456 26C9.93468 25.9969 9.23689 25.7973 8.65226 25.4012C8.07078 25.0052 7.62287 24.4316 7.30856 23.6803C6.99738 22.9291 6.84337 22.0255 6.84651 20.9694C6.84651 19.9164 7.0021 19.019 7.31327 18.2772C7.62759 17.5354 8.07549 16.9712 8.65698 16.5846C9.24161 16.1949 9.93782 16 10.7456 16C11.5534 16 12.2481 16.1949 12.8295 16.5846C13.4142 16.9744 13.8636 17.5402 14.178 18.2819C14.4923 19.0206 14.6479 19.9164 14.6447 20.9694C14.6447 22.0286 14.4876 22.9338 14.1732 23.6851C13.8621 24.4363 13.4157 25.0099 12.8343 25.4059C12.2528 25.802 11.5566 26 10.7456 26ZM10.7456 24.3074C11.2988 24.3074 11.7404 24.0292 12.0705 23.4729C12.4005 22.9165 12.5639 22.082 12.5608 20.9694C12.5608 20.237 12.4854 19.6272 12.3345 19.14C12.1868 18.6528 11.9762 18.2867 11.7027 18.0415C11.4324 17.7963 11.1134 17.6737 10.7456 17.6737C10.1956 17.6737 9.75552 17.9488 9.42548 18.4988C9.09545 19.0489 8.92886 19.8724 8.92572 20.9694C8.92572 21.7111 8.99958 22.3303 9.14731 22.827C9.29818 23.3204 9.51035 23.6913 9.7838 23.9397C10.0573 24.1848 10.3779 24.3074 10.7456 24.3074Z" fill="white"/>
<path fill-rule="evenodd" clip-rule="evenodd" d="M6.96911 5.95406C12.2412 0.681982 20.7889 0.681982 26.0609 5.95406C31.3331 11.2261 31.3331 19.7739 26.0609 25.046C23.4252 27.6817 19.9677 29 16.5151 29H14.5004V26H16.5151C19.2045 26 21.8891 24.9752 23.9397 22.9247C28.0401 18.8241 28.0401 12.1759 23.9397 8.07538C19.8392 3.97488 13.1909 3.97488 9.09043 8.07538L7.1658 10H11.0004V13H3.5C3.10217 13 2.72064 12.842 2.43933 12.5607C2.15804 12.2794 2 11.8978 2 11.5V4H5V7.92316L6.96911 5.95406Z" fill="white"/>
</svg>
