<svg width="32" height="33" viewBox="0 0 32 33" fill="none" xmlns="http://www.w3.org/2000/svg">
<rect y="0.5" width="32" height="32" rx="16" fill="white"/>
<path d="M9.6 24.1587L16 17.7587L22.4 24.1587L23.6587 22.9L17.2587 16.5L23.6587 10.1L22.4 8.84133L16 15.2413L9.6 8.84133L8.34133 10.1L14.7413 16.5L8.34133 22.9L9.6 24.1587ZM16.0053 32.5C13.7938 32.5 11.7138 32.0804 9.76533 31.2413C7.81807 30.401 6.12385 29.2609 4.68267 27.8209C3.24148 26.3809 2.10074 24.6884 1.26044 22.7436C0.420148 20.7987 0 18.7193 0 16.5053C0 14.2914 0.420148 12.2114 1.26044 10.2653C2.09956 8.31807 3.23793 6.62385 4.67555 5.18267C6.11318 3.74148 7.80622 2.60074 9.75467 1.76044C11.7031 0.920148 13.7831 0.5 15.9947 0.5C18.2062 0.5 20.2862 0.920148 22.2347 1.76044C24.1819 2.59956 25.8761 3.73852 27.3173 5.17733C28.7585 6.61615 29.8993 8.30918 30.7395 10.2564C31.5798 12.2037 32 14.2831 32 16.4947C32 18.7062 31.5804 20.7862 30.7413 22.7347C29.9022 24.6831 28.7621 26.3773 27.3209 27.8173C25.8797 29.2573 24.1873 30.3981 22.2436 31.2396C20.2998 32.081 18.2204 32.5012 16.0053 32.5ZM16 30.7222C19.9704 30.7222 23.3333 29.3444 26.0889 26.5889C28.8444 23.8333 30.2222 20.4704 30.2222 16.5C30.2222 12.5296 28.8444 9.16667 26.0889 6.41111C23.3333 3.65556 19.9704 2.27778 16 2.27778C12.0296 2.27778 8.66666 3.65556 5.91111 6.41111C3.15555 9.16667 1.77778 12.5296 1.77778 16.5C1.77778 20.4704 3.15555 23.8333 5.91111 26.5889C8.66666 29.3444 12.0296 30.7222 16 30.7222Z" fill="#212121"/>
</svg>
