<svg width="24" height="24" viewBox="0 0 24 24" fill="none" xmlns="http://www.w3.org/2000/svg">
<path d="M22 16.5C22 16.7387 21.9084 16.9676 21.7453 17.1364C21.5822 17.3052 21.3611 17.4 21.1304 17.4H11.5652L8.08696 21V17.4H2.86957C2.63894 17.4 2.41776 17.3052 2.25469 17.1364C2.09161 16.9676 2 16.7387 2 16.5V3.9C2 3.66131 2.09161 3.43239 2.25469 3.2636C2.41776 3.09482 2.63894 3 2.86957 3H21.1304C21.3611 3 21.5822 3.09482 21.7453 3.2636C21.9084 3.43239 22 3.66131 22 3.9V16.5Z" stroke="white" stroke-width="1.5" stroke-linecap="round" stroke-linejoin="round"/>
<path d="M6.34766 12H17.652" stroke="white" stroke-width="1.5" stroke-linecap="round" stroke-linejoin="round"/>
<path d="M6.34766 7.49976H17.652" stroke="white" stroke-width="1.5" stroke-linecap="round" stroke-linejoin="round"/>
</svg>
