<svg width="24" height="24" viewBox="0 0 24 24" fill="none" xmlns="http://www.w3.org/2000/svg">
<rect width="24" height="24" rx="4" fill="url(#paint0_linear_4688_6008)"/>
<path d="M6.14987 17.94L18.7051 12.6499C18.8349 12.5956 18.9455 12.5049 19.0233 12.3892C19.1011 12.2735 19.1426 12.1379 19.1426 11.9993C19.1426 11.8606 19.1011 11.725 19.0233 11.6093C18.9455 11.4936 18.8349 11.403 18.7051 11.3486L6.14987 6.05857C6.04116 6.01196 5.92235 5.99268 5.80416 6.00249C5.68597 6.01229 5.57213 6.05086 5.4729 6.11472C5.37367 6.17857 5.29217 6.26571 5.23576 6.36826C5.17935 6.47082 5.1498 6.58556 5.14977 6.70214L5.14258 9.96246C5.14258 10.3161 5.40879 10.6202 5.76854 10.6626L15.935 11.9993L5.76854 13.3289C5.40879 13.3784 5.14258 13.6825 5.14258 14.0361L5.14977 17.2964C5.14977 17.7985 5.675 18.1451 6.14987 17.94Z" fill="white"/>
<defs>
<linearGradient id="paint0_linear_4688_6008" x1="0" y1="12" x2="24" y2="12" gradientUnits="userSpaceOnUse">
<stop stop-color="#AB3A6C"/>
<stop offset="1" stop-color="#E6533A"/>
</linearGradient>
</defs>
</svg>
