<svg width="20" height="21" viewBox="0 0 20 21" fill="none" xmlns="http://www.w3.org/2000/svg">
<path d="M12.4996 15.5365C12.6504 15.3857 12.7428 15.1762 12.7425 14.9461L12.7425 14.8448C12.7425 14.384 12.3694 14.011 11.9092 14.0116L7.35631 14.0116L15.0581 6.30982C15.3833 5.98455 15.3833 5.45657 15.0581 5.1313C14.7328 4.80603 14.2048 4.80603 13.8796 5.1313L6.1778 12.8331V8.28014C6.1778 7.81934 5.80476 7.44631 5.34455 7.44689H5.24327C4.78248 7.44689 4.40944 7.81993 4.41003 8.28014V14.9461C4.41003 15.4069 4.78306 15.7799 5.24327 15.7793L11.9092 15.7793C12.1396 15.7793 12.3489 15.6873 12.4996 15.5365Z" fill="#E90000"/>
</svg>
