<svg width="14" height="16" viewBox="0 0 14 16" fill="none" xmlns="http://www.w3.org/2000/svg">
<path d="M11.0004 5.71436H12.1433C12.2948 5.71436 12.4402 5.77456 12.5473 5.88172C12.6545 5.98889 12.7147 6.13423 12.7147 6.28578V14.8572C12.7147 15.0088 12.6545 15.1541 12.5473 15.2613C12.4402 15.3684 12.2948 15.4286 12.1433 15.4286H1.85756C1.70601 15.4286 1.56066 15.3684 1.4535 15.2613C1.34634 15.1541 1.28613 15.0088 1.28613 14.8572V6.28578C1.28613 6.13423 1.34634 5.98889 1.4535 5.88172C1.56066 5.77456 1.70601 5.71436 1.85756 5.71436H3.00042" stroke="#1C1C1C" stroke-linecap="round" stroke-linejoin="round"/>
<path d="M7 8.57129V0.571289" stroke="#1C1C1C" stroke-linecap="round" stroke-linejoin="round"/>
<path d="M4.71484 2.857L7.00056 0.571289L9.28627 2.857" stroke="#1C1C1C" stroke-linecap="round" stroke-linejoin="round"/>
</svg>
