<svg width="24" height="24" viewBox="0 0 28 24" style="color: transparent;" fill="none" xmlns="http://www.w3.org/2000/svg">
<rect width="28" height="24" rx="4" fill="url(#paint0_linear_5148_23482)"/>
<path d="M10.7559 8.40039C10.8193 8.39753 10.8826 8.41107 10.9395 8.43945L15.3945 10.667C15.456 10.6979 15.5077 10.7452 15.5439 10.8037C15.5803 10.8626 15.5996 10.9308 15.5996 11C15.5996 11.0692 15.5803 11.1374 15.5439 11.1963C15.5077 11.2548 15.456 11.3021 15.3945 11.333L10.9395 13.5605C10.8826 13.5889 10.8193 13.6025 10.7559 13.5996C10.6925 13.5967 10.6311 13.5773 10.5771 13.5439C10.5232 13.5106 10.4782 13.4645 10.4473 13.4092C10.4163 13.3538 10.4005 13.291 10.4004 13.2275V8.77246C10.4005 8.70901 10.4163 8.64624 10.4473 8.59082C10.4782 8.53546 10.5232 8.48939 10.5771 8.45605C10.6311 8.42271 10.6925 8.40329 10.7559 8.40039Z" fill="white" stroke="white" stroke-width="0.8" stroke-linecap="round" stroke-linejoin="round"/>
<path d="M6.44336 3.48047H19.3564C21.0103 3.48047 22.3201 4.76636 22.3203 6.31543V15.4346C22.3201 16.9836 21.0103 18.2695 19.3564 18.2695H6.44336C4.7896 18.2695 3.48067 16.9836 3.48047 15.4346V6.31543C3.48067 4.7664 4.7896 3.48053 6.44336 3.48047Z" stroke="white" stroke-width="0.96" stroke-linecap="round" stroke-linejoin="round"/>
<path d="M25.0016 9.75V18C25.0016 19.6569 23.55 21 21.7595 21H9.60156" stroke="white" stroke-width="0.96" stroke-linecap="round" stroke-linejoin="round"/>
<defs>
<linearGradient id="paint0_linear_5148_23482" x1="-2" y1="31.0435" x2="37.5761" y2="26.0701" gradientUnits="userSpaceOnUse">
<stop stop-color="#AB3A6C"/>
<stop offset="1" stop-color="#E6533A"/>
</linearGradient>
</defs>
</svg>
