<svg width="20" height="18" viewBox="0 0 20 18" fill="none" xmlns="http://www.w3.org/2000/svg">
<path d="M10 4.625C10 4.625 10 4.625 9.32444 3.75C8.54222 2.735 7.38667 2 6 2C3.78667 2 2 3.75875 2 5.9375C2 6.75125 2.24889 7.50375 2.67556 8.125C3.39556 9.18375 10 16 10 16M10 4.625C10 4.625 10 4.625 10.6756 3.75C11.4578 2.735 12.6133 2 14 2C16.2133 2 18 3.75875 18 5.9375C18 6.75125 17.7511 7.50375 17.3244 8.125C16.6044 9.18375 10 16 10 16" stroke="#1C1C1C" stroke-width="1.2" stroke-linecap="round" stroke-linejoin="round"/>
</svg>
