<?xml version="1.0" encoding="UTF-8"?> <svg xmlns="http://www.w3.org/2000/svg" width="100" height="100" viewBox="0 0 100 100" fill="none"><g clip-path="url(#clip0_360_3)"><g filter="url(#filter0_d_360_3)"><path d="M50 100C77.6142 100 100 77.6142 100 50C100 22.3858 77.6142 0 50 0C22.3858 0 0 22.3858 0 50C0 77.6142 22.3858 100 50 100Z" fill="white" fill-opacity="0.13"></path></g><path d="M50 84.1121C68.8396 84.1121 84.1121 68.8396 84.1121 50C84.1121 31.1604 68.8396 15.8879 50 15.8879C31.1604 15.8879 15.8879 31.1604 15.8879 50C15.8879 68.8396 31.1604 84.1121 50 84.1121Z" fill="white"></path><path fill-rule="evenodd" clip-rule="evenodd" d="M58.926 51.477L48.281 58.579C47.737 58.943 47.036 58.977 46.459 58.668C45.883 58.359 45.522 57.757 45.522 57.102V42.8976C45.522 42.2425 45.883 41.6406 46.459 41.3316C47.036 41.0227 47.737 41.0564 48.281 41.4204L58.926 48.523C59.419 48.851 59.716 49.407 59.716 50C59.716 50.593 59.419 51.149 58.926 51.477Z" fill="url(#paint0_linear_360_3)"></path></g><defs><filter id="filter0_d_360_3" x="-56.0748" y="-52.3365" width="212.15" height="212.15" filterUnits="userSpaceOnUse" color-interpolation-filters="sRGB"><feFlood flood-opacity="0" result="BackgroundImageFix"></feFlood><feColorMatrix in="SourceAlpha" type="matrix" values="0 0 0 0 0 0 0 0 0 0 0 0 0 0 0 0 0 0 127 0" result="hardAlpha"></feColorMatrix><feOffset dy="3.73832"></feOffset><feGaussianBlur stdDeviation="28.0374"></feGaussianBlur><feComposite in2="hardAlpha" operator="out"></feComposite><feColorMatrix type="matrix" values="0 0 0 0 0 0 0 0 0 0 0 0 0 0 0 0 0 0 0.05 0"></feColorMatrix><feBlend mode="normal" in2="BackgroundImageFix" result="effect1_dropShadow_360_3"></feBlend><feBlend mode="normal" in="SourceGraphic" in2="effect1_dropShadow_360_3" result="shape"></feBlend></filter><linearGradient id="paint0_linear_360_3" x1="52.619" y1="41.1216" x2="52.619" y2="58.878" gradientUnits="userSpaceOnUse"><stop stop-color="#AC3B6D"></stop><stop offset="1" stop-color="#E3523D"></stop></linearGradient><clipPath id="clip0_360_3"><rect width="100" height="100" fill="white"></rect></clipPath></defs></svg> 