<svg width="32" height="32" viewBox="0 0 32 32" fill="none" xmlns="http://www.w3.org/2000/svg">
<path fill-rule="evenodd" clip-rule="evenodd" d="M6.66667 8H25.3333C26.8 8 28 9.2 28 10.6667V21.3333C28 22.8 26.8 24 25.3333 24H6.66667C5.2 24 4 22.8 4 21.3333V10.6667C4 9.2 5.2 8 6.66667 8ZM8 21.3333H24C24.7333 21.3333 25.3333 20.7333 25.3333 20V12C25.3333 11.2667 24.7333 10.6667 24 10.6667H8C7.26667 10.6667 6.66667 11.2667 6.66667 12V20C6.66667 20.7333 7.26667 21.3333 8 21.3333Z" fill="white"/>
</svg>
