<svg width="20" height="21" viewBox="0 0 20 21" fill="none" xmlns="http://www.w3.org/2000/svg">
<path d="M7.21326 5.4635C7.06248 5.61428 6.97012 5.8238 6.97042 6.05391L6.97042 6.15519C6.97042 6.61598 7.34346 6.98902 7.80366 6.98843L12.3566 6.98843L4.65483 14.6902C4.32956 15.0155 4.32956 15.5434 4.65483 15.8687C4.9801 16.194 5.50807 16.194 5.83334 15.8687L13.5351 8.16694V12.7199C13.5351 13.1807 13.9081 13.5537 14.3683 13.5531H14.4696C14.9304 13.5531 15.3035 13.1801 15.3029 12.7199V6.05391C15.3029 5.59311 14.9298 5.22007 14.4696 5.22066L7.80366 5.22066C7.57326 5.22066 7.36403 5.31273 7.21326 5.4635Z" fill="#008B1C"/>
</svg>
