<svg width="16" height="16" viewBox="0 0 16 16" fill="none" xmlns="http://www.w3.org/2000/svg">
<path fill-rule="evenodd" clip-rule="evenodd" d="M8 5.50098C7.33696 5.50098 6.70107 5.76437 6.23223 6.23321C5.76339 6.70205 5.5 7.33794 5.5 8.00098C5.5 8.66402 5.76339 9.2999 6.23223 9.76874C6.70107 10.2376 7.33696 10.501 8 10.501C8.66304 10.501 9.29893 10.2376 9.76777 9.76874C10.2366 9.2999 10.5 8.66402 10.5 8.00098C10.5 7.33794 10.2366 6.70205 9.76777 6.23321C9.29893 5.76437 8.66304 5.50098 8 5.50098ZM6.5 8.00098C6.5 7.60315 6.65804 7.22162 6.93934 6.94032C7.22064 6.65901 7.60218 6.50098 8 6.50098C8.39782 6.50098 8.77936 6.65901 9.06066 6.94032C9.34196 7.22162 9.5 7.60315 9.5 8.00098C9.5 8.3988 9.34196 8.78033 9.06066 9.06164C8.77936 9.34294 8.39782 9.50098 8 9.50098C7.60218 9.50098 7.22064 9.34294 6.93934 9.06164C6.65804 8.78033 6.5 8.3988 6.5 8.00098Z" fill="#212121"/>
<path fill-rule="evenodd" clip-rule="evenodd" d="M8.00065 2.16748C4.99132 2.16748 2.96398 3.97015 1.78732 5.49881L1.76665 5.52615C1.49998 5.87215 1.25532 6.19015 1.08932 6.56615C0.911318 6.96948 0.833984 7.40881 0.833984 8.00081C0.833984 8.59281 0.911318 9.03215 1.08932 9.43548C1.25598 9.81148 1.50065 10.1301 1.76665 10.4755L1.78798 10.5028C2.96398 12.0315 4.99132 13.8341 8.00065 13.8341C11.01 13.8341 13.0373 12.0315 14.214 10.5028L14.2346 10.4755C14.5013 10.1301 14.746 9.81148 14.912 9.43548C15.09 9.03215 15.1673 8.59281 15.1673 8.00081C15.1673 7.40881 15.09 6.96948 14.912 6.56615C14.7453 6.19015 14.5007 5.87215 14.2346 5.52615L14.2133 5.49881C13.0373 3.97015 11.01 2.16748 8.00065 2.16748ZM2.58065 6.10881C3.66598 4.69748 5.43398 3.16748 8.00065 3.16748C10.5673 3.16748 12.3347 4.69748 13.4206 6.10881C13.714 6.48881 13.8847 6.71548 13.9973 6.97015C14.1027 7.20881 14.1673 7.50015 14.1673 8.00081C14.1673 8.50148 14.1027 8.79281 13.9973 9.03148C13.8847 9.28615 13.7133 9.51281 13.4213 9.89281C12.334 11.3041 10.5673 12.8341 8.00065 12.8341C5.43398 12.8341 3.66665 11.3041 2.58065 9.89281C2.28732 9.51281 2.11665 9.28615 2.00398 9.03148C1.89865 8.79281 1.83398 8.50148 1.83398 8.00081C1.83398 7.50015 1.89865 7.20881 2.00398 6.97015C2.11665 6.71548 2.28865 6.48881 2.58065 6.10881Z" fill="#212121"/>
</svg>
