<svg width="20" height="16" viewBox="0 0 20 16" fill="none" xmlns="http://www.w3.org/2000/svg">
<path d="M10 2.59961C11.7088 2.59961 13.3435 3.59661 14.7002 4.83398C16.0211 6.03877 16.9912 7.39341 17.3984 8C16.9912 8.60659 16.0211 9.96123 14.7002 11.166C13.3435 12.4034 11.7088 13.4004 10 13.4004C8.29124 13.4004 6.65648 12.4034 5.2998 11.166C3.97854 9.96093 3.00768 8.60637 2.60059 8C3.00768 7.39363 3.97854 6.03907 5.2998 4.83398C6.65648 3.59661 8.29124 2.59961 10 2.59961Z" stroke="#1C1C1C" stroke-width="1.2" stroke-linecap="round" stroke-linejoin="round"/>
<path d="M9.99963 10.4922C11.3445 10.4922 12.4348 9.37634 12.4348 7.99988C12.4348 6.62341 11.3445 5.50757 9.99963 5.50757C8.65472 5.50757 7.56445 6.62341 7.56445 7.99988C7.56445 9.37634 8.65472 10.4922 9.99963 10.4922Z" fill="#1C1C1C"/>
</svg>
